<?xml version="1.0" standalone="no"?>
<!DOCTYPE svg PUBLIC "-//W3C//DTD SVG 20010904//EN"
 "http://www.w3.org/TR/2001/REC-SVG-20010904/DTD/svg10.dtd">
<svg version="1.0" xmlns="http://www.w3.org/2000/svg"
 width="512.000000pt" height="512.000000pt" viewBox="0 0 512.000000 512.000000"
 preserveAspectRatio="xMidYMid meet">
<metadata>
Created by potrace 1.14, written by Peter Selinger 2001-2017
</metadata>
<g transform="translate(0.000000,512.000000) scale(0.100000,-0.100000)"
fill="#000000" stroke="none">
<path d="M0 2560 l0 -2560 2560 0 2560 0 0 2560 0 2560 -2560 0 -2560 0 0
-2560z m2860 1766 c707 -129 1265 -644 1434 -1326 39 -157 51 -256 51 -435 0
-94 -6 -208 -14 -255 -62 -397 -231 -731 -511 -1010 -338 -338 -778 -520
-1256 -520 -285 1 -530 55 -778 174 -52 25 -100 46 -105 46 -5 0 -211 -52
-456 -115 -246 -64 -449 -114 -451 -113 -1 2 53 201 122 443 l124 440 -44 85
c-134 260 -198 528 -197 830 1 487 190 935 538 1271 196 189 395 315 638 402
229 83 392 108 645 102 102 -3 219 -11 260 -19z"/>
<path d="M2405 4040 c-344 -38 -658 -192 -902 -441 -204 -209 -330 -445 -395
-740 -30 -138 -32 -435 -5 -572 35 -175 102 -345 196 -502 l49 -81 -70 -248
c-38 -136 -67 -250 -64 -253 3 -4 121 24 262 60 l255 66 106 -59 c516 -287
1143 -244 1615 110 461 346 678 920 562 1489 -81 397 -350 769 -710 980 -136
80 -321 147 -487 176 -103 19 -311 26 -412 15z m-100 -337 c80 -40 127 -116
127 -203 0 -64 -23 -120 -69 -161 -91 -85 -209 -86 -303 -2 -93 84 -103 209
-24 302 73 85 177 109 269 64z m523 -469 c121 -50 171 -196 107 -313 -73 -133
-246 -157 -354 -50 -110 110 -79 287 64 362 39 21 135 21 183 1z m559 -484
c119 -68 148 -228 61 -334 -80 -98 -223 -110 -318 -28 -83 71 -103 175 -52
273 59 114 197 153 309 89z m-581 -445 c156 -46 208 -247 95 -368 -42 -46 -93
-67 -161 -67 -115 0 -203 75 -224 193 -17 95 57 212 153 241 60 19 77 19 137
1z m-501 -482 c142 -71 172 -259 58 -364 -59 -56 -127 -74 -205 -58 -73 16
-150 92 -167 167 -44 180 149 337 314 255z"/>
</g>
</svg>
